<?xml version="1.0" encoding="UTF-8" standalone="no"?>
<svg
   viewBox="0 0 147 147"
   version="1.1"
   id="svg1"
   width="147"
   height="147"
   xmlns="http://www.w3.org/2000/svg"
   xmlns:svg="http://www.w3.org/2000/svg">
  <defs
     id="defs1" />
  <!--! Font Awesome Pro 6.4.2 by @fontawesome - https://fontawesome.com License - https://fontawesome.com/license (Commercial License) Copyright 2023 Fonticons, Inc. -->
  <path
     id="path18"
     d="m 73.531254,20.296194 c -0.846837,-0.0078 -1.703982,0.423501 -2.150779,1.317093 l -4.904699,9.933194 -10.868351,1.558594 c -1.932652,0.290937 -2.763983,2.680947 -1.330081,4.11485 l 7.896875,7.689063 -1.870312,10.82695 c -0.290938,1.932652 1.704229,3.42874 3.491411,2.535149 l 9.746083,-5.153506 9.684387,5.070706 c 1.787182,0.893593 3.802726,-0.602904 3.491006,-2.535555 L 84.846482,44.82578 92.743357,37.219925 c 1.413121,-1.413123 0.602571,-3.803132 -1.330081,-4.11485 L 80.544925,31.546481 h -0.0207 l -4.904699,-9.933194 c -0.405235,-0.86242 -1.241436,-1.3093 -2.088272,-1.317093 z m -0.03409,4.54184 c 1.311865,2.635952 2.612191,5.277404 3.916372,7.917169 0.40155,1.162762 1.526977,2.051449 2.76285,2.117901 2.966489,0.392829 5.931476,0.835136 8.896973,1.255805 -2.594958,2.514932 -5.201402,5.018009 -7.804333,7.524682 0.617667,3.572499 1.234353,7.145197 1.851641,10.717765 -3.200952,-1.659313 -6.391581,-3.338325 -9.585756,-5.010634 -3.208695,1.696082 -6.417293,3.392398 -9.62594,5.088564 0.600729,-3.566795 1.224251,-7.132872 1.840276,-10.699502 -2.605728,-2.53789 -5.211563,-5.075712 -7.81732,-7.613569 3.581008,-0.521057 7.165299,-1.032271 10.748612,-1.547229 1.39835,-2.832128 2.797173,-5.664165 4.195216,-8.496365 0.207135,-0.418195 0.41427,-0.836392 0.621409,-1.254587 z M 60.2,73.503906 c -3.678272,0 -6.649999,2.971727 -6.649999,6.650001 v 39.900003 c 0,3.67827 2.971727,6.65 6.649999,6.65 h 26.6 c 3.678273,0 6.650001,-2.97173 6.650001,-6.65 V 80.153907 c 0,-3.678274 -2.971728,-6.650001 -6.650001,-6.650001 z m 26.462811,3.325001 c 0.248615,-0.0056 0.498316,0.01115 0.742768,0.05762 1.441153,0.229019 2.610066,1.539894 2.707246,2.98974 0.01077,12.771494 0.01089,25.543423 0.01216,38.315033 -0.02301,0.75779 0.04553,1.51804 -0.03084,2.27376 -0.136983,1.5125 -1.482075,2.7841 -2.985274,2.89923 -8.398075,0.022 -16.796602,0.0108 -25.19483,0.017 -0.760761,-0.0243 -1.527554,0.0595 -2.283502,-0.0548 -1.460877,-0.21123 -2.651586,-1.53812 -2.74337,-3.00436 -0.01652,-12.77437 -0.01051,-25.549076 -0.01089,-38.323554 0.02318,-0.770645 -0.05604,-1.545096 0.03735,-2.312724 0.161364,-1.490601 1.493516,-2.727434 2.977157,-2.841998 8.923837,-0.0221 17.848112,-0.01336 26.772095,-0.01503 z M 13.65,86.803906 c -3.6782737,0 -6.65,2.971727 -6.65,6.650001 v 26.600003 c 0,3.67827 2.9717263,6.65 6.65,6.65 h 26.600001 c 3.678272,0 6.649999,-2.97173 6.649999,-6.65 V 93.453907 c 0,-3.678274 -2.971727,-6.650001 -6.649999,-6.650001 z m 26.374328,3.321754 c 0.29835,1.92e-4 0.595998,0.01288 0.889698,0.07144 1.406171,0.251836 2.536212,1.531219 2.646363,2.949557 0.02164,8.331283 0.01396,16.662903 0.01583,24.994323 -0.02495,0.77678 0.04878,1.55653 -0.03368,2.33099 -0.138483,1.51051 -1.484018,2.77735 -2.984463,2.89233 -8.342296,0.0217 -16.685166,0.0139 -25.027606,0.0158 -0.772429,-0.0287 -1.548162,0.0521 -2.318003,-0.0361 -1.502155,-0.14798 -2.758107,-1.48742 -2.872849,-2.98123 -0.02164,-8.34562 -0.01394,-16.69158 -0.01583,-25.037344 0.02445,-0.762215 -0.04841,-1.527226 0.03288,-2.287156 0.13812,-1.503814 1.470201,-2.768496 2.963764,-2.892733 2.237705,-0.01203 4.476147,-0.008 6.714129,-0.0138 6.365004,-0.0045 12.730208,-0.0029 19.09521,-0.0028 0.29723,0.0089 0.596218,-0.0034 0.894566,-0.0033 z M 106.75,100.10391 c -3.67827,0 -6.65,2.97173 -6.65,6.65 v 13.3 c 0,3.67827 2.97173,6.65 6.65,6.65 h 26.6 c 3.67827,0 6.65,-2.97173 6.65,-6.65 v -13.3 c 0,-3.67827 -2.97173,-6.65 -6.65,-6.65 z m 26.26677,3.32216 c 0.28477,-10e-4 0.56923,0.006 0.85155,0.0455 1.44614,0.19 2.64851,1.46867 2.78558,2.91424 0.0339,3.91825 0.0168,7.8371 0.0219,11.75561 -0.0251,0.77906 0.0503,1.5612 -0.0341,2.33789 -0.14163,1.50772 -1.48563,2.77028 -2.98365,2.88502 -8.34079,0.0211 -16.68181,0.0129 -25.02273,0.0146 -0.78115,-0.0269 -1.56608,0.0544 -2.34439,-0.0377 -1.4719,-0.15723 -2.70513,-1.45359 -2.84443,-2.91748 -0.0357,-3.94864 -0.0162,-7.89804 -0.0224,-11.84694 0.0226,-0.76326 -0.0521,-1.53008 0.0385,-2.2904 0.16182,-1.48305 1.48088,-2.71718 2.95686,-2.84078 2.23742,-0.012 4.47562,-0.008 6.71332,-0.0138 6.34328,-0.005 12.68659,-0.003 19.02987,-0.003 0.28408,0.008 0.56921,-0.002 0.85397,-0.003 z"
     style="stroke-width:0.207813" />
</svg>
