<?xml version="1.0" encoding="UTF-8" standalone="no"?>
<svg
   className="p-3"
   width="64"
   height="64"
   fill="none"
   viewBox="0 0 24 24"
   stroke="currentColor"
   version="1.1"
   id="svg1"
   sodipodi:docname="podium.svg"
   inkscape:version="1.3-alpha (95f74fb, 2023-03-31)"
   xmlns:inkscape="http://www.inkscape.org/namespaces/inkscape"
   xmlns:sodipodi="http://sodipodi.sourceforge.net/DTD/sodipodi-0.dtd"
   xmlns="http://www.w3.org/2000/svg"
   xmlns:svg="http://www.w3.org/2000/svg">
  <defs
     id="defs1" />
  <sodipodi:namedview
     id="namedview1"
     pagecolor="#505050"
     bordercolor="#eeeeee"
     borderopacity="1"
     inkscape:showpageshadow="0"
     inkscape:pageopacity="0"
     inkscape:pagecheckerboard="0"
     inkscape:deskcolor="#d1d1d1"
     inkscape:zoom="8.6085644"
     inkscape:cx="35.429833"
     inkscape:cy="33.396974"
     inkscape:window-width="1512"
     inkscape:window-height="916"
     inkscape:window-x="0"
     inkscape:window-y="38"
     inkscape:window-maximized="1"
     inkscape:current-layer="svg1" />
  <g
     id="g4"
     inkscape:label="three">
    <path
       d="m 21,9.75 a 2.25,2.25 0 1 1 -4.5,0 2.25,2.25 0 0 1 4.5,0 z"
       id="path3" />
  </g>
  <g
     id="g6"
     inkscape:label="one">
    <path
       d="m 7.5,9.75 a 2.25,2.25 0 1 1 -4.5,0 2.25,2.25 0 0 1 4.5,0 z"
       id="path4"
       inkscape:label="path4" />
  </g>
  <g
     id="g5"
     inkscape:label="two">
    <path
       d="m 15,6.75 a 3,3 0 1 1 -6,0 3,3 0 0 1 6,0 z"
       id="path2" />
  </g>
  <path
     d="m 18,18.72 a 9.094,9.094 0 0 0 3.741,-0.479 3,3 0 0 0 -4.682,-2.72 M 18,18.719 a 5.971,5.971 0 0 0 -0.941,-3.197 m 0,0 A 5.995,5.995 0 0 0 12,12.75 5.995,5.995 0 0 0 6.942,15.522 m 0,0 a 3,3 0 0 0 -4.681,2.72 8.986,8.986 0 0 0 3.74,0.477 m 11.998,0 L 18,18.75 c 0,0.225 -0.012,0.447 -0.037,0.666 A 11.944,11.944 0 0 1 12,21 C 9.83,21 7.793,20.424 6.037,19.416 A 6.062,6.062 0 0 1 6,18.719 m 0.941,-3.197 a 5.971,5.971 0 0 0 -0.94,3.197"
     id="path1" />
</svg>
